<svg width="19" height="19" viewBox="0 0 19 19" fill="none" xmlns="http://www.w3.org/2000/svg">
<path d="M10.5044 2.90449C10.742 2.66703 11.0641 2.53363 11.4 2.53363C11.7358 2.53363 12.058 2.66703 12.2955 2.90449L17.9955 8.60449C18.233 8.84203 18.3664 9.16415 18.3664 9.50003C18.3664 9.8359 18.233 10.158 17.9955 10.3956L12.2955 16.0956C12.0566 16.3263 11.7366 16.454 11.4045 16.4511C11.0724 16.4482 10.7547 16.315 10.5199 16.0801C10.285 15.8453 10.1518 15.5276 10.1489 15.1955C10.146 14.8634 10.2737 14.5434 10.5044 14.3045L13.9333 10.7667H1.89997C1.56403 10.7667 1.24185 10.6332 1.0043 10.3957C0.766753 10.1581 0.633301 9.83597 0.633301 9.50003C0.633301 9.16409 0.766753 8.8419 1.0043 8.60436C1.24185 8.36681 1.56403 8.23336 1.89997 8.23336H13.9333L10.5044 4.69556C10.267 4.45802 10.1336 4.1359 10.1336 3.80003C10.1336 3.46415 10.267 3.14203 10.5044 2.90449Z" fill="white"/>
</svg>
